<svg width="235" height="60" viewBox="0 0 235 60" fill="none" xmlns="http://www.w3.org/2000/svg">
<g clip-path="url(#clip0_1_3)">
<g clip-path="url(#clip1_1_3)">
<path d="M49.7083 8.375H15.2917C12.5763 8.375 10.375 10.5763 10.375 13.2917V47.7083C10.375 50.4237 12.5763 52.625 15.2917 52.625H49.7083C52.4237 52.625 54.625 50.4237 54.625 47.7083V13.2917C54.625 10.5763 52.4237 8.375 49.7083 8.375Z" stroke="#F9802D" stroke-width="2.75" stroke-linecap="round" stroke-linejoin="round"/>
<path d="M21.4375 20.6667C22.1163 20.6667 22.6667 20.1164 22.6667 19.4375C22.6667 18.7587 22.1163 18.2083 21.4375 18.2083C20.7586 18.2083 20.2083 18.7587 20.2083 19.4375C20.2083 20.1164 20.7586 20.6667 21.4375 20.6667Z" stroke="#F9802D" stroke-width="2.75" stroke-linecap="round" stroke-linejoin="round"/>
<path d="M22.4208 20.4208L29.0583 27.0583" stroke="#F9802D" stroke-width="2.75" stroke-linecap="round" stroke-linejoin="round"/>
<path d="M43.5625 20.6667C44.2413 20.6667 44.7917 20.1164 44.7917 19.4375C44.7917 18.7587 44.2413 18.2083 43.5625 18.2083C42.8836 18.2083 42.3333 18.7587 42.3333 19.4375C42.3333 20.1164 42.8836 20.6667 43.5625 20.6667Z" stroke="#F9802D" stroke-width="2.75" stroke-linecap="round" stroke-linejoin="round"/>
<path d="M35.9417 27.0583L42.5792 20.4208" stroke="#F9802D" stroke-width="2.75" stroke-linecap="round" stroke-linejoin="round"/>
<path d="M21.4375 42.7917C22.1163 42.7917 22.6667 42.2413 22.6667 41.5625C22.6667 40.8836 22.1163 40.3333 21.4375 40.3333C20.7586 40.3333 20.2083 40.8836 20.2083 41.5625C20.2083 42.2413 20.7586 42.7917 21.4375 42.7917Z" stroke="#F9802D" stroke-width="2.75" stroke-linecap="round" stroke-linejoin="round"/>
<path d="M22.4208 40.5792L29.0583 33.9417" stroke="#F9802D" stroke-width="2.75" stroke-linecap="round" stroke-linejoin="round"/>
<path d="M43.5625 42.7917C44.2413 42.7917 44.7917 42.2413 44.7917 41.5625C44.7917 40.8836 44.2413 40.3333 43.5625 40.3333C42.8836 40.3333 42.3333 40.8836 42.3333 41.5625C42.3333 42.2413 42.8836 42.7917 43.5625 42.7917Z" stroke="#F9802D" stroke-width="2.75" stroke-linecap="round" stroke-linejoin="round"/>
<path d="M35.9417 33.9417L42.5792 40.5792" stroke="#F9802D" stroke-width="2.75" stroke-linecap="round" stroke-linejoin="round"/>
<path d="M32.5 35.4167C35.2154 35.4167 37.4167 33.2154 37.4167 30.5C37.4167 27.7846 35.2154 25.5833 32.5 25.5833C29.7846 25.5833 27.5833 27.7846 27.5833 30.5C27.5833 33.2154 29.7846 35.4167 32.5 35.4167Z" stroke="#F9802D" stroke-width="2.75" stroke-linecap="round" stroke-linejoin="round"/>
</g>
<path d="M72.0455 41.3835C70.0341 41.3835 68.304 40.9574 66.8551 40.1051C65.4148 39.2443 64.3068 38.0511 63.5312 36.5256C62.7642 35 62.3807 33.2443 62.3807 31.2585C62.3807 29.2472 62.7685 27.483 63.544 25.9659C64.3281 24.4403 65.4403 23.2514 66.8807 22.3991C68.321 21.5384 70.0341 21.108 72.0199 21.108C73.733 21.108 75.233 21.419 76.5199 22.0412C77.8068 22.6634 78.8253 23.5369 79.5753 24.6619C80.3253 25.7869 80.7386 27.108 80.8153 28.625H75.6761C75.5313 27.6449 75.1477 26.8565 74.5256 26.2599C73.9119 25.6548 73.1065 25.3523 72.1094 25.3523C71.2656 25.3523 70.5284 25.5824 69.8977 26.0426C69.2756 26.4943 68.7898 27.1548 68.4403 28.0241C68.0909 28.8935 67.9162 29.946 67.9162 31.1818C67.9162 32.4347 68.0866 33.5 68.4276 34.3778C68.777 35.2557 69.267 35.9247 69.8977 36.3849C70.5284 36.8452 71.2656 37.0753 72.1094 37.0753C72.7315 37.0753 73.2898 36.9474 73.7841 36.6918C74.2869 36.4361 74.7003 36.0653 75.0241 35.5795C75.3565 35.0852 75.5739 34.4929 75.6761 33.8026H80.8153C80.7301 35.3026 80.321 36.6236 79.5881 37.7656C78.8636 38.8991 77.8622 39.7855 76.5838 40.4247C75.3054 41.0639 73.7926 41.3835 72.0455 41.3835ZM93.1744 41.3835C91.1886 41.3835 89.4712 40.9616 88.0224 40.1179C86.582 39.2656 85.4698 38.081 84.6857 36.5639C83.9016 35.0384 83.5096 33.2699 83.5096 31.2585C83.5096 29.2301 83.9016 27.4574 84.6857 25.9403C85.4698 24.4148 86.582 23.2301 88.0224 22.3864C89.4712 21.5341 91.1886 21.108 93.1744 21.108C95.1602 21.108 96.8732 21.5341 98.3136 22.3864C99.7624 23.2301 100.879 24.4148 101.663 25.9403C102.447 27.4574 102.839 29.2301 102.839 31.2585C102.839 33.2699 102.447 35.0384 101.663 36.5639C100.879 38.081 99.7624 39.2656 98.3136 40.1179C96.8732 40.9616 95.1602 41.3835 93.1744 41.3835ZM93.1999 37.1648C94.1033 37.1648 94.8576 36.9091 95.4627 36.3977C96.0678 35.8778 96.5238 35.1705 96.8306 34.2756C97.146 33.3807 97.3036 32.3622 97.3036 31.2202C97.3036 30.0781 97.146 29.0597 96.8306 28.1648C96.5238 27.2699 96.0678 26.5625 95.4627 26.0426C94.8576 25.5227 94.1033 25.2628 93.1999 25.2628C92.288 25.2628 91.521 25.5227 90.8988 26.0426C90.2852 26.5625 89.8207 27.2699 89.5053 28.1648C89.1985 29.0597 89.0451 30.0781 89.0451 31.2202C89.0451 32.3622 89.1985 33.3807 89.5053 34.2756C89.8207 35.1705 90.2852 35.8778 90.8988 36.3977C91.521 36.9091 92.288 37.1648 93.1999 37.1648ZM106.38 41V21.3636H111.826V41H106.38ZM109.116 18.8324C108.306 18.8324 107.612 18.5639 107.032 18.027C106.461 17.4815 106.176 16.8295 106.176 16.071C106.176 15.321 106.461 14.6776 107.032 14.1406C107.612 13.5952 108.306 13.3224 109.116 13.3224C109.926 13.3224 110.616 13.5952 111.187 14.1406C111.767 14.6776 112.056 15.321 112.056 16.071C112.056 16.8295 111.767 17.4815 111.187 18.027C110.616 18.5639 109.926 18.8324 109.116 18.8324ZM121.635 29.6477V41H116.189V21.3636H121.379V24.8281H121.609C122.044 23.6861 122.773 22.7827 123.795 22.1179C124.818 21.4446 126.058 21.108 127.516 21.108C128.879 21.108 130.068 21.4062 131.082 22.0028C132.097 22.5994 132.885 23.4517 133.447 24.5597C134.01 25.6591 134.291 26.9716 134.291 28.4972V41H128.845V29.4688C128.854 28.267 128.547 27.3295 127.925 26.6562C127.303 25.9744 126.446 25.6335 125.355 25.6335C124.622 25.6335 123.974 25.7912 123.412 26.1065C122.858 26.4219 122.423 26.8821 122.108 27.4872C121.801 28.0838 121.643 28.804 121.635 29.6477ZM156.187 21.3636L149.322 41H143.186L136.321 21.3636H142.074L146.152 35.4134H146.356L150.422 21.3636H156.187ZM164.046 41.3707C162.793 41.3707 161.677 41.1534 160.697 40.7188C159.717 40.2756 158.941 39.6236 158.37 38.7628C157.808 37.8935 157.526 36.8111 157.526 35.5156C157.526 34.4247 157.727 33.5085 158.127 32.767C158.528 32.0256 159.073 31.429 159.763 30.9773C160.454 30.5256 161.238 30.1847 162.116 29.9545C163.002 29.7244 163.931 29.5625 164.903 29.4688C166.045 29.3494 166.965 29.2386 167.664 29.1364C168.363 29.0256 168.87 28.8636 169.185 28.6506C169.501 28.4375 169.658 28.1222 169.658 27.7045V27.6278C169.658 26.8182 169.403 26.1918 168.891 25.7486C168.388 25.3054 167.673 25.0838 166.744 25.0838C165.763 25.0838 164.984 25.3011 164.404 25.7358C163.825 26.1619 163.441 26.6989 163.254 27.3466L158.217 26.9375C158.472 25.7443 158.975 24.7131 159.725 23.8438C160.475 22.9659 161.442 22.2926 162.627 21.8239C163.82 21.3466 165.201 21.108 166.769 21.108C167.86 21.108 168.904 21.2358 169.901 21.4915C170.907 21.7472 171.798 22.1435 172.573 22.6804C173.357 23.2173 173.975 23.9077 174.427 24.7514C174.879 25.5866 175.104 26.5881 175.104 27.7557V41H169.94V38.277H169.786C169.471 38.8906 169.049 39.4318 168.521 39.9006C167.992 40.3608 167.357 40.723 166.616 40.9872C165.874 41.2429 165.018 41.3707 164.046 41.3707ZM165.606 37.6122C166.407 37.6122 167.114 37.4545 167.728 37.1392C168.342 36.8153 168.823 36.3807 169.173 35.8352C169.522 35.2898 169.697 34.6719 169.697 33.9815V31.8977C169.526 32.0085 169.292 32.1108 168.994 32.2045C168.704 32.2898 168.376 32.3707 168.009 32.4474C167.643 32.5156 167.276 32.5795 166.91 32.6392C166.543 32.6903 166.211 32.7372 165.913 32.7798C165.273 32.8736 164.715 33.0227 164.238 33.2273C163.761 33.4318 163.39 33.7088 163.126 34.0582C162.862 34.3991 162.729 34.8253 162.729 35.3366C162.729 36.0781 162.998 36.6449 163.535 37.0369C164.08 37.4205 164.771 37.6122 165.606 37.6122ZM191.922 32.6392V21.3636H197.368V41H192.139V37.4332H191.935C191.491 38.5838 190.754 39.5085 189.723 40.2074C188.7 40.9062 187.452 41.2557 185.977 41.2557C184.665 41.2557 183.51 40.9574 182.513 40.3608C181.516 39.7642 180.736 38.9162 180.173 37.8168C179.619 36.7173 179.338 35.4006 179.33 33.8665V21.3636H184.776V32.8949C184.784 34.054 185.095 34.9702 185.709 35.6435C186.322 36.3168 187.145 36.6534 188.176 36.6534C188.832 36.6534 189.446 36.5043 190.017 36.206C190.588 35.8991 191.048 35.4474 191.398 34.8509C191.756 34.2543 191.93 33.517 191.922 32.6392ZM207.17 14.8182V41H201.724V14.8182H207.17ZM221.977 21.3636V25.4545H210.152V21.3636H221.977ZM212.837 16.6591H218.283V34.9659C218.283 35.4687 218.359 35.8608 218.513 36.142C218.666 36.4148 218.879 36.6065 219.152 36.7173C219.433 36.8281 219.757 36.8835 220.124 36.8835C220.379 36.8835 220.635 36.8622 220.891 36.8196C221.146 36.7685 221.342 36.7301 221.479 36.7045L222.335 40.7571C222.063 40.8423 221.679 40.9403 221.185 41.0511C220.69 41.1705 220.089 41.2429 219.382 41.2685C218.07 41.3196 216.919 41.1449 215.93 40.7443C214.95 40.3437 214.188 39.7216 213.642 38.8778C213.097 38.0341 212.828 36.9687 212.837 35.6818V16.6591Z" fill="#F9802D"/>
</g>
<defs>
<clipPath id="clip0_1_3">
<rect width="235" height="60" fill="white"/>
</clipPath>
<clipPath id="clip1_1_3">
<rect width="57" height="57" fill="white" transform="translate(4 1)"/>
</clipPath>
</defs>
</svg>
